# xmcd
#
# Track frame offsets:
#	150
#	12417
#	27401
#	44245
#	60101
#	71654
#	89216
#	106260
#	123769
#	143574
#	157583
#	171456
#	187434
#	206130
#	223611
#
# Disc length: 3141 seconds
#
# Revision: 1
# Processed by: cddbd v1.5.2PL0 Copyright (c) Steve Scherf et al.
# Submitted via: audiograbber 1.83.01
#
DISCID=df0c430f
DTITLE=George Jones vol4 - cb 90361
DYEAR=2009
DGENRE=Country
TTITLE0=George Jones - Sinners and Saints
TTITLE1=George Jones - Golden Ring
TTITLE2=George Jones - You Never KnowJust how Good You've Got It
TTITLE3=George Jones - Yesterday's Wine
TTITLE4=George Jones - Ain't Love A Lot Like That
TTITLE5=George Jones - Real Deal
TTITLE6=George Jones - A Few Ole Country Boys
TTITLE7=George Jones - When The Last Curtain Fall
TTITLE8=George Jones - Our Bed Of Roses
TTITLE9=George Jones - This Bottle (In My Hand)
TTITLE10=George Jones - The Man He Was
TTITLE11=George Jones - Beer Run
TTITLE12=George Jones - 50,000 Names
TTITLE13=George Jones - C.C. Waterback
TTITLE14=George Jones - Tender Years
EXTD=
EXTT0=
EXTT1=
EXTT2=
EXTT3=
EXTT4=
EXTT5=
EXTT6=
EXTT7=
EXTT8=
EXTT9=
EXTT10=
EXTT11=
EXTT12=
EXTT13=
EXTT14=
PLAYORDER=
